<?xml version="1.0" encoding="utf-8"?>
<!-- Generator: Adobe Illustrator 28.3.0, SVG Export Plug-In . SVG Version: 6.00 Build 0)  -->
<svg version="1.1" id="Layer_1" xmlns="http://www.w3.org/2000/svg" xmlns:xlink="http://www.w3.org/1999/xlink" x="0px" y="0px"
	 viewBox="0 0 73.4 76" style="enable-background:new 0 0 73.4 76;" xml:space="preserve">
<g>
	<g>
		<g>
			<path d="M18.3,52.1c-2.1,1.2-9.1,3-9.8,3c-0.6,0-1.1-0.2-1.4-0.6c-0.7-0.8-0.6-2.2-0.4-3.7l0-0.3c0.8-8.4,1.8-16.8,2.8-24.9
				c0.5-4.5,1.1-9.2,1.6-13.8l0,0c0.2-1.4,1.6-2.6,2.7-2.6c0.3,0,0.6,0.1,0.8,0.3c0.2,0.2,0.4,0.5,0.3,1.2l0,0
				c-1.2,11.3-2.9,26.5-4.6,40.9c1.3-0.2,5.2-0.9,7.4-2.1c0.4-0.2,1,0,1.3,0.5C19.5,50.6,19.3,51.5,18.3,52.1z"/>
		</g>
		<g>
			<path d="M28.8,25.4c-0.9-0.9-2-1.4-3.3-1.4c-6,0-8.1,7-8.1,11.7c0,1.6,0.4,4.1,1.5,6.1c1.2,2.3,3,3.5,5.1,3.5
				c2.2,0,4-1.4,5.3-4.1c1-2.1,1.6-5,1.7-8.1C31.2,29.9,30.3,27,28.8,25.4z M24.2,42.1c-0.4,0-0.9-0.2-1.3-0.6
				c-1.1-1.1-1.8-3.5-1.7-5.5c0.2-4.2,2.1-9.3,4.1-9.3c0.7,0,1.2,0.2,1.6,0.7c0.9,1,1.4,3.1,1.3,5.6c-0.2,3-0.6,5.3-1.3,6.8
				C26.3,41.3,25.3,42.1,24.2,42.1z"/>
		</g>
		<g>
			<path d="M57.1,31.6c-0.4,5.6-1.1,11.1-2,15.1c-0.4,1.9-1,3-1.5,3.3c-0.1,0-0.2,0.1-0.3,0.1c-0.1,0-0.3,0-0.4-0.1
				c-1.3-0.8-1.1-2.5-0.9-3.8c0-0.1,0-0.2,0-0.3c0.3-2.9,0.9-7.8,1.3-9.8c0-0.2,0.1-0.4,0.1-0.8c0.2-1.1,0.9-4.4,0.4-5.1
				c0,0,0,0,0,0c-1.3-0.2-4,3.2-8,13c-0.1,0.3-0.1,0.3-0.2,0.4c-0.4,0.9-1.1,1-1.4,1c-0.7,0-1.2-0.5-1.2-1.2c0-1.5,0.2-3.1,0.4-4.6
				c0.3-2.4,0.6-4.6,0.1-6.2c-0.8,0.7-2.4,3.2-3,4.3c-0.2,0.3-0.3,0.6-0.5,0.9c-1.2,2.2-2.2,4.1-2.9,6.5c-0.1,0.4-0.2,1-0.3,1.5
				c-0.2,1.6-0.5,3.6-2.4,3.8c-0.2,0-0.3,0-0.5-0.2c-0.5-0.5-0.4-2.4-0.1-8.2c0-0.4,0.1-0.8,0.1-1.2c0.2-3.5,0.6-7,1-9.4l0,0
				c0.1-0.6,0.8-1.6,1.6-1.6c0.5,0,0.9,0.2,1.2,0.5c0.5,0.5,0.6,1.3,0.5,1.9c0,0.8-0.1,1.7-0.2,2.6C38,34.5,38,35.3,37.9,36
				c0.3-0.5,0.6-0.9,0.9-1.4c0.6-0.9,1.2-1.9,1.8-2.8c0.8-1.2,2-2.9,3.7-2.9c0.7,0,1.4,0.2,1.8,0.7c0.8,0.8,1,2,1,3.2
				c2.7-3.8,4.7-6,7.1-5.9c0.8,0.1,1.5,0.4,2,1C57.2,29,57.2,30.7,57.1,31.6z"/>
		</g>
		<g>
			<path d="M64.5,41.4c-0.3,2.2-0.5,4.3-0.6,5.9c-0.1,1.2-0.7,2.4-1.9,2.4c-0.4,0-0.7-0.2-1-0.4c-0.3-0.3-0.5-0.8-0.5-1.3
				c0.3-7.3,0.7-11.8,1.5-18c0.1-0.8,0.6-1.9,1.5-1.9c1.3,0,1.9,1.2,1.9,2.3C65.4,33.1,64.9,37.5,64.5,41.4z"/>
			<path d="M65.2,26.4c-0.4,0.2-0.9,0.4-1.3,0.4c-0.9,0-1.5-0.5-1.5-1.3c0-0.4,0-1.1,0.5-1.6c0.3-0.3,0.7-0.3,1.3-0.3
				c1,0.2,1.4,0.8,1.5,1.4C65.7,25.7,65.6,26.2,65.2,26.4z"/>
		</g>
		<path d="M7.7,65.5c1.5,0.1,3-0.1,4.5-0.3c1.5-0.3,2.9-0.8,4.2-1.4c1.3-0.6,2.5-1.4,3.6-2.3c1-0.8,1.9-1.7,2.6-2.7
			c0.8-1.1,1.6-2.2,2.2-3.5c0.1-0.1,0.1-0.3,0.2-0.4c0.1-0.2,0.2-0.4,0.2-0.6c0-0.2,0-0.4,0-0.6c-0.1-0.3-0.4-0.7-0.7-0.9
			c-0.3-0.2-0.8-0.3-1.1-0.1c-0.1,0-0.2,0.1-0.4,0.1c-0.2,0.1-0.4,0.3-0.5,0.5c-0.6,1.3-1.3,2.5-2.1,3.6c0.1-0.1,0.2-0.2,0.2-0.3
			c-0.9,1.1-1.9,2.1-3,3c0.1-0.1,0.2-0.2,0.3-0.2c-1.1,0.9-2.3,1.6-3.6,2.1c0.1,0,0.2-0.1,0.4-0.1c-1.4,0.6-2.8,1-4.2,1.2
			c0.1,0,0.3,0,0.4-0.1c-1,0.1-2,0.2-3.1,0.1c-0.2,0-0.4,0-0.6,0.1c-0.2,0.1-0.3,0.2-0.5,0.3c-0.1,0.1-0.2,0.3-0.3,0.5
			c-0.1,0.2-0.1,0.4-0.1,0.6c0,0.4,0.1,0.8,0.4,1.1c0.1,0.1,0.2,0.2,0.3,0.2C7.1,65.5,7.4,65.5,7.7,65.5z"/>
		<path d="M28.2,21.2c0.3-1.6,0.7-3.2,1.1-4.8c0.1-0.3,0-0.7-0.1-1c-0.2-0.3-0.5-0.5-0.8-0.6c-0.3-0.1-0.7-0.1-1,0.1
			c-0.3,0.2-0.5,0.4-0.6,0.8c-0.5,1.6-0.8,3.2-1.1,4.8c-0.1,0.2-0.1,0.3,0,0.5c0,0.2,0.1,0.3,0.2,0.5c0.2,0.3,0.5,0.5,0.8,0.6
			c0.3,0.1,0.7,0.1,1-0.1C27.9,21.8,28.2,21.6,28.2,21.2L28.2,21.2z"/>
		<path d="M31.7,24.7c1.4-0.6,2.8-1.5,4-2.5c0.3-0.3,0.6-0.6,0.9-0.9c0.2-0.2,0.4-0.6,0.4-0.9c0-0.3-0.1-0.7-0.4-0.9
			c-0.2-0.2-0.6-0.4-0.9-0.4c-0.3,0-0.7,0.1-0.9,0.4c-0.5,0.5-1,1-1.5,1.4c0.1-0.1,0.2-0.1,0.3-0.2c-1,0.7-2,1.4-3.1,1.8
			c-0.1,0.1-0.3,0.2-0.4,0.3c-0.1,0.1-0.2,0.3-0.2,0.4c-0.1,0.3,0,0.7,0.1,1c0.2,0.3,0.4,0.5,0.8,0.6c0.1,0,0.2,0,0.3,0
			C31.3,24.9,31.5,24.8,31.7,24.7L31.7,24.7z"/>
	</g>
</g>
</svg>
